#!OML:ASF F:\VICON\USERDATA\INSTALL\rory3\rory3.ASF
:FULLY-SPECIFIED
:DEGREES
63
root 1.044241169211482 17.883245259251858 37.78710829424237 -3.5869300505047534 -0.2541780522341371 -7.789153334009969
lfemur -14.869789309579332 -1.1558219665617955 -13.23537456836516
ltibia 29.38359212815356
lfoot -8.201020049358029 -2.047955049386135
ltoes -16.65753071084984
rfemur -6.318195514405131 3.9472517148440547 32.80298860776615
rtibia 47.593948514079415
rfoot -5.294229717847472 -10.828987184284143
rtoes 5.161119968494491
lowerback 10.85359273852393 1.311508405556057 5.608715507106738
upperback -0.2114015761825514 2.9849613235560986 2.0609475734197904
thorax -5.8687933586545915 1.324502263537654 -1.6795728113143629
lowerneck -16.13636242932632 -3.9213763215986974 -1.6962585511007555
upperneck 21.68324956936075 -5.5985488882262455 1.8961112285083337
head 9.751661543212697 -2.478545420447678 0.18128234239236868
lclavicle -2.5153293037841755e-15 -2.7546745764975824e-15
lhumerus -30.420792199735338 2.3209083047753376 82.05206802522443
lradius 28.18227973786414
lwrist 10.062110091161202
lhand -29.48820121154931 18.397454629537457
lfingers nan
lthumb -2.8524312684566695 48.36892616070334
rclavicle -2.509575543153379e-15 -2.7481398766154342e-15
rhumerus -27.92675180512598 -17.0524306719142 -76.36416122966193
rradius 31.598759578830414
rwrist 3.070724375377042
rhand -17.72067749819139 21.997680108927103
rfingers nan
rthumb 8.410737878702546 -7.642970903800003
64
root 1.0579419454047476 17.897152113957983 39.07788385207422 -3.5048307658887583 0.3695716874773822 -7.348811779487216
lfemur -13.963875456828326 -1.5386574707942842 -14.254096037146859
ltibia 27.652143784932974
lfoot -8.126708372278381 -2.2626297242378213
ltoes -15.39974464522723
rfemur -7.143654616416885 3.0585291676967237 31.87102668101223
rtibia 49.86840451952976
rfoot -5.718347290578972 -9.89778541900831
rtoes 4.99298093687476
lowerback 10.822975732246384 1.1545723154620133 5.264431479284731
upperback -0.20754333149573195 2.789017843735167 1.979798878513221
thorax -5.857607080561177 1.2314155370401842 -1.5700539929454262
lowerneck -16.19774424241965 -3.928772535492948 -1.7139759092449256
upperneck 21.598895894953746 -5.613560144784948 2.0665519484547645
head 9.73685732495199 -2.4722300463157243 0.239173785177356
lclavicle -2.514054243940765e-15 -2.7532471321750473e-15
lhumerus -29.149745589583038 1.3420733877395863 81.83577071917836
lradius 28.742412464640864
lwrist 9.063626158919941
lhand -29.44502673642152 18.20394521358349
lfingers nan
lthumb -2.7741760128543036 48.30068057443104
rclavicle -2.5098302436508123e-15 -2.7477781948421168e-15
rhumerus -28.39064015818837 -17.365474034488923 -77.28298174044177
rradius 31.115616537138923
rwrist 3.130581907897421
rhand -17.722414539958077 21.933065358640242
rfingers nan
rthumb 8.345110965284873 -7.853000834896054
65
root 1.0771225677085836 17.915734822800626 39.173063566162675 -3.442581562064303 0.9603449772622057 -6.773983454541469
lfemur -12.991672928333873 -1.9938928806525182 -15.549909624004592
ltibia 27.23419917914792
lfoot -7.439608050956375 -1.6162742009886444
ltoes -16.215908618421096
rfemur -8.805950210612863 1.9400277181195202 30.384145428246157
rtibia 52.449196697413896
rfoot -6.088079882647573 -8.941507972790411
rtoes 4.658238440644141
lowerback 10.80720187085016 0.993759668820399 4.7811209768966325
upperback -0.21939832224265948 2.4854514184421523 1.8813714461277713
thorax -5.874421506953849 1.0752397161184348 -1.468052741428133
lowerneck -16.28412008060857 -3.9244296976481525 -1.7046135376861073
upperneck 21.49058774711377 -5.613938009520396 2.197387620576586
head 9.712829722858764 -2.46227483791427 0.28439670995763555
lclavicle -2.51333655617835e-15 -2.7523890450305048e-15
lhumerus -27.903981653402205 0.42648038937944177 81.56266704454781
lradius 29.29188180372892
lwrist 7.874751073753408
lhand -29.38112792509885 18.30312703957663
lfingers nan
lthumb -2.7400657417393477 48.32234674455748
rclavicle -2.51017265797201e-15 -2.7476309123617907e-15
rhumerus -28.936278446186048 -17.862251158497465 -78.12697591877003
rradius 30.533711414131517
rwrist 3.1646149783900483
rhand -17.76285960918642 21.80967702307733
rfingers nan
rthumb 8.292263419002653 -8.009494984711862
66
root 1.080749429017703 17.92835996153366 39.91203396982194 -3.375949071231537 1.6044935117187917 -5.398967318059061
lfemur -11.760421509765619 -2.5338260973088276 -17.519870018270378
ltibia 27.361484610761117
lfoot -7.4759462033478234 -1.9822881505619412
ltoes -15.415824097427972
rfemur -10.83970358277908 0.6835443818390747 28.11651788004002
rtibia 54.9572855402239
rfoot -6.432609803458181 -8.169660605102404
rtoes 4.29067950875711
lowerback 10.788499281195078 0.6451405775616678 3.632723640558133
upperback -0.21415830417395781 1.797937745524858 1.6754404143349784
thorax -5.915367005238195 0.8222710823189324 -0.8353153374235529
lowerneck -16.41667468561816 -3.9029978882645353 -1.6770229761436652
upperneck 21.41897348112074 -5.578287201237838 2.2910941622440992
head 9.704590349969676 -2.4421031982720973 0.32191097759434983
lclavicle -2.512507714916948e-15 -2.7514262257141938e-15
lhumerus -26.76381914838599 -0.31013965038487035 81.25623250570297
lradius 29.743123292764007
lwrist 7.028882991099724
lhand -29.363912359430344 18.573432333501778
lfingers nan
lthumb -2.769828451897963 48.4859620161077
rclavicle -2.510741547714921e-15 -2.747575108886561e-15
rhumerus -29.53595483568902 -18.434168353109687 -78.79494421000193
rradius 29.967517811070746
rwrist 3.1852672286984727
rhand -17.7400731481651 21.817790157780838
rfingers nan
rthumb 8.248452442694843 -8.102950453146939
